<?xml version="1.0" encoding="UTF-8" standalone="no"?>
<svg
   xmlns:dc="http://purl.org/dc/elements/1.1/"
   xmlns:cc="http://creativecommons.org/ns#"
   xmlns:rdf="http://www.w3.org/1999/02/22-rdf-syntax-ns#"
   xmlns:svg="http://www.w3.org/2000/svg"
   xmlns="http://www.w3.org/2000/svg"
   xmlns:sodipodi="http://sodipodi.sourceforge.net/DTD/sodipodi-0.dtd"
   xmlns:inkscape="http://www.inkscape.org/namespaces/inkscape"
   height="350"
   width="700"
   viewBox="0 0 700 350"
   version="1.1"
   id="svg60"
   sodipodi:docname="network.svg"
   inkscape:version="0.92.5 (2060ec1f9f, 2020-04-08)">
  <metadata
     id="metadata66">
    <rdf:RDF>
      <cc:Work
         rdf:about="">
        <dc:format>image/svg+xml</dc:format>
        <dc:type
           rdf:resource="http://purl.org/dc/dcmitype/StillImage" />
        <dc:title></dc:title>
      </cc:Work>
    </rdf:RDF>
  </metadata>
  <defs
     id="defs64" />
  <sodipodi:namedview
     pagecolor="#ffffff"
     bordercolor="#666666"
     borderopacity="1"
     objecttolerance="10"
     gridtolerance="10"
     guidetolerance="10"
     inkscape:pageopacity="0"
     inkscape:pageshadow="2"
     inkscape:window-width="1920"
     inkscape:window-height="1016"
     id="namedview62"
     showgrid="false"
     inkscape:zoom="0.58739976"
     inkscape:cx="-157.16613"
     inkscape:cy="96.571993"
     inkscape:window-x="0"
     inkscape:window-y="27"
     inkscape:window-maximized="1"
     inkscape:current-layer="svg60" />
  <g
     fill="none"
     transform="translate(0 -702.36)"
     id="g58"
     inkscape:export-xdpi="96"
     inkscape:export-ydpi="96">
    <g
       stroke="#000"
       stroke-width="2"
       id="g6">
      <path
         d="M635 902.36l-170-50M635 852.36l-170-50M465 902.36l170-50M465 952.36l170-50M635 902.36l-170-100M635 852.36l-170-100M465 952.36l170-100M465 1002.4l170-100M465 1002.4l170-150M635 902.36l-170-150M465 902.36h170M465 852.36h170"
         id="path4" />
    </g>
    <circle
       cx="-650"
       transform="scale(-1 1)"
       stroke="#0f9640"
       cy="902.36"
       r="16.2"
       stroke-width="4"
       id="circle8" />
    <circle
       stroke-width="4"
       transform="scale(-1 1)"
       stroke="#0f9640"
       cy="852.36"
       cx="-650"
       r="16.2"
       id="circle10" />
    <g
       stroke="#000"
       stroke-width="2"
       id="g14">
      <path
         d="M65 952.36l170-50M65 902.36l170-50M65 852.36l170-50M65 802.36l170-50M235 852.36l-170-50M235 902.36l-170-50M235 952.36l-170-50M235 1002.4L65 952.36M65 952.36l170-100M65 902.36l170-100M65 852.36l170-100M235 902.36l-170-100M235 952.36l-170-100M235 1002.4L65 902.36M235 1002.4L65 852.36M235 952.36l-170-150M65 902.36l170-150M65 952.36l170-150M65 952.36l170-200M235 1002.4L65 802.36M235 952.36H65M235 902.36H65M235 852.36H65M235 802.36H65"
         id="path12" />
    </g>
    <g
       stroke="#164bc5"
       stroke-width="4"
       id="g24">
      <circle
         cx="50"
         cy="902.36"
         r="16.2"
         id="circle16" />
      <circle
         cy="952.36"
         cx="50"
         r="16.2"
         id="circle18" />
      <circle
         cy="852.36"
         cx="50"
         r="16.2"
         id="circle20" />
      <circle
         cx="50"
         cy="802.36"
         r="16.2"
         id="circle22" />
    </g>
    <g
       id="g56"
       stroke="#000">
      <g
         id="g28"
         stroke-width="2">
        <path
           d="M435 1002.4l-170-50M435 952.36l-170-50M435 902.36l-170-50M435 852.36l-170-50M435 802.36l-170-50M265 802.36l170-50M265 852.36l170-50M265 902.36l170-50M265 952.36l170-50M265 1002.4l170-50M435 1002.4l-170-100M435 952.36l-170-100M435 902.36l-170-100M435 852.36l-170-100M265 852.36l170-100M265 902.36l170-100M265 952.36l170-100M265 1002.4l170-100M265 1002.4l170-150M265 952.36l170-150M265 902.36l170-150M435 902.36l-170-150M435 952.36l-170-150M435 1002.4l-170-150M435 1002.4l-170-200M435 952.36l-170-200M265 952.36l170-200M265 1002.4l170-200M435 1002.4l-170-250M265 1002.4l170-250M265 1002.4h170M265 952.36h170M265 902.36h170M265 852.36h170M265 802.36h170M265 752.36h170"
           id="path26" />
      </g>
      <g
         id="g54"
         stroke-width="4">
        <circle
           cx="-450"
           transform="scale(-1 1)"
           cy="1002.4"
           r="16.2"
           id="circle30" />
        <circle
           transform="scale(-1 1)"
           cy="902.36"
           cx="-450"
           r="16.2"
           id="circle32" />
        <circle
           cx="-450"
           transform="scale(-1 1)"
           cy="952.36"
           r="16.2"
           id="circle34" />
        <circle
           cx="-450"
           transform="scale(-1 1)"
           cy="852.36"
           r="16.2"
           id="circle36" />
        <circle
           transform="scale(-1 1)"
           cy="802.36"
           cx="-450"
           r="16.2"
           id="circle38" />
        <circle
           cx="-450"
           transform="scale(-1 1)"
           cy="752.36"
           r="16.2"
           id="circle40" />
        <circle
           cx="250"
           cy="1002.4"
           r="16.2"
           id="circle42" />
        <circle
           cy="902.36"
           cx="250"
           r="16.2"
           id="circle44" />
        <circle
           cx="250"
           cy="952.36"
           r="16.2"
           id="circle46" />
        <circle
           cx="250"
           cy="852.36"
           r="16.2"
           id="circle48" />
        <circle
           cy="802.36"
           cx="250"
           r="16.2"
           id="circle50" />
        <circle
           cx="250"
           cy="752.36"
           r="16.2"
           id="circle52" />
      </g>
    </g>
  </g>
</svg>
